<svg version="1.2" xmlns="http://www.w3.org/2000/svg" viewBox="0 0 30 30" width="30" height="30"><style>.a{fill:#ff5821}</style><path fill-rule="evenodd" class="a" d="m29.9 15.5c0 0.3-0.2 0.5-0.5 0.5h-1c-0.5 6.9-6.1 12.2-12.9 12.5v1c0 0.3-0.3 0.5-0.5 0.5-0.3 0-0.5-0.2-0.5-0.5v-1c-6.9-0.3-12.4-5.6-13-12.5h-1c-0.3 0-0.5-0.2-0.5-0.5 0-0.2 0.2-0.5 0.5-0.5h1c0-3.4 1.3-6.6 3.6-9.1l-1.8-1.8-1.7 0.4q0 0.1-0.1 0.1c-0.3 0-0.5-0.2-0.5-0.5 0-0.2 0.1-0.5 0.4-0.5l1.1-0.3-0.6-0.7-1.2 0.4c-0.2 0.1-0.4 0-0.5-0.1-0.2-0.1-0.2-0.3-0.2-0.4 0-0.2 0.2-0.4 0.3-0.4l0.8-0.3-1-0.9c-0.1-0.2-0.1-0.5 0.1-0.7 0.1-0.2 0.5-0.2 0.7 0l0.9 0.9 0.2-0.7c0.1-0.3 0.4-0.4 0.7-0.3 0.2 0.1 0.4 0.4 0.3 0.6l-0.4 1.2 0.6 0.7 0.3-1.2c0.1-0.2 0.3-0.4 0.6-0.3 0.3 0 0.4 0.3 0.4 0.6l-0.5 1.7 1.8 1.8c2.4-2.2 5.4-3.5 8.7-3.6v-1c0-0.3 0.2-0.5 0.5-0.5 0.2 0 0.5 0.2 0.5 0.5v1c7.2 0.2 12.9 6.2 12.9 13.4h1c0.3 0 0.5 0.3 0.5 0.5zm-2.5 0.5h-1c-0.2 0-0.4-0.2-0.4-0.5 0-0.2 0.2-0.5 0.4-0.5h1c0-6.7-5.2-12.2-11.9-12.4v1c0 0.2-0.3 0.5-0.5 0.5-0.3 0-0.5-0.3-0.5-0.5v-1c-3 0.1-5.8 1.3-8 3.3l1.8 1.7c4-3.6 10.2-3.4 14 0.6 3.7 3.9 3.6 10.1-0.2 14-3.8 3.8-10.1 3.9-14 0.1-3.9-3.7-4.2-9.9-0.5-14l-1.8-1.7c-2.1 2.3-3.3 5.3-3.3 8.4h1c0.3 0 0.5 0.3 0.5 0.5 0 0.3-0.2 0.5-0.5 0.5h-1c0.6 6.3 5.7 11.2 12 11.5v-1c0-0.3 0.2-0.5 0.5-0.5 0.2 0 0.5 0.2 0.5 0.5v1c6.3-0.3 11.4-5.2 11.9-11.5zm-19.1-6.9c-3.3 3.6-3 9.2 0.5 12.5 3.6 3.4 9.1 3.3 12.6-0.2 3.4-3.4 3.5-9 0.2-12.5-3.4-3.6-9-3.8-12.6-0.6l1.4 1.5c2.9-2.5 7.2-2.3 9.7 0.5 2.6 2.7 2.5 7-0.1 9.7-2.7 2.7-7 2.8-9.8 0.2-2.7-2.6-3-6.9-0.5-9.7zm2.1 2.1c-2.1 2.4-1.8 6.1 0.5 8.3 2.4 2.1 6.1 2.1 8.3-0.2 2.3-2.3 2.4-5.9 0.2-8.3-2.2-2.4-5.8-2.6-8.3-0.5l1.8 1.7q0.5-0.3 1.2-0.5l-0.1-0.6c0-0.2 0-0.3 0.2-0.5 0.1-0.1 0.3-0.1 0.5 0 0.1 0.1 0.3 0.2 0.3 0.4v0.6c2 0 3.5 1.6 3.5 3.5 0 1.9-1.6 3.4-3.5 3.4-1.9 0-3.5-1.5-3.5-3.4l-0.6-0.1c-0.2 0-0.4-0.2-0.4-0.5 0-0.3 0.3-0.5 0.6-0.5l0.5 0.1q0.2-0.6 0.6-1.1zm2.1 4c0.1 1.3 1.2 2.3 2.5 2.3 1.4 0 2.4-1.1 2.5-2.4 0-1.3-1-2.5-2.3-2.6l0.3 2.5q0 0-0.1 0 0.1 0.1 0 0.1 0 0.1 0 0.1 0 0.1-0.1 0.2-0.1 0.1-0.3 0.1-0.1 0-0.1 0zm1.7-2.5q-0.3 0.1-0.6 0.2l0.7 0.7zm-1.3 1q-0.2 0.3-0.3 0.6l1 0.1z"/></svg>