<svg version="1.2" xmlns="http://www.w3.org/2000/svg" viewBox="0 0 30 30" width="30" height="30"><style>.a{fill:#ff5821}</style><path fill-rule="evenodd" class="a" d="m30 13.5v3c0 0.4-0.3 0.8-0.8 0.9l-2 0.5q-0.5 1.9-1.6 3.7l1.2 1.7c0.2 0.4 0.2 0.9-0.2 1.3l-2 2c-0.4 0.4-0.9 0.4-1.3 0.2l-1.7-1.2q-1.8 1.1-3.7 1.6l-0.5 2c0 0.5-0.5 0.8-0.9 0.8h-3c-0.4 0-0.8-0.3-0.9-0.8l-0.5-2q-1.3-0.3-2.5-0.9 0 0.5-0.4 0.8l-0.7 0.8c-0.4 0.4-1.1 0.5-1.7 0.2l-1.1 1.2c-1 0.9-2.6 0.9-3.6 0l-1.4-1.4c-0.9-1-0.9-2.6 0-3.6l1.2-1.1c-0.3-0.6-0.2-1.3 0.2-1.7l0.8-0.7q0.3-0.4 0.8-0.4-0.6-1.2-0.9-2.5l-2-0.5c-0.5 0-0.8-0.5-0.8-0.9v-3c0-0.4 0.3-0.8 0.8-0.9l2-0.5q0.5-1.9 1.6-3.7l-1.2-1.7c-0.2-0.4-0.2-0.9 0.2-1.3l2-2c0.4-0.4 0.9-0.4 1.3-0.2l1.7 1.2q1.8-1.1 3.7-1.6l0.5-2c0.1-0.5 0.5-0.8 0.9-0.8h3c0.4 0 0.9 0.3 0.9 0.8l0.5 2q1.6 0.4 3.1 1.3l0.9-1q0.1 0 0.2-0.1 0 0 0 0l6.5-2.9c0.4-0.2 0.8-0.1 1.1 0.2 0.3 0.3 0.4 0.7 0.2 1.1l-2.9 6.5q-0.1 0.1-0.1 0.2 0 0 0 0l-0.9 0.9q0.8 1.5 1.2 3.1l2 0.5c0.5 0.1 0.8 0.5 0.8 0.9zm-1 0l-2.4-0.5c-0.2 0-0.3-0.2-0.3-0.3q-0.4-1.6-1.1-3l-1.5 1.5c0.5 1.2 0.8 2.5 0.8 3.8 0 5.2-4.3 9.5-9.5 9.5-1.4 0-2.8-0.3-4.1-0.9-2-1-3.5-2.5-4.5-4.5-0.6-1.3-0.9-2.7-0.9-4.1 0-5.2 4.3-9.5 9.5-9.5 1.3 0 2.6 0.3 3.8 0.8l1.5-1.5q-1.4-0.7-3-1.1c-0.1 0-0.3-0.1-0.3-0.3l-0.5-2.4h-3l-0.5 2.4c0 0.2-0.2 0.3-0.3 0.3-1.5 0.3-2.8 0.9-4 1.7-0.2 0.1-0.4 0.1-0.5 0l-2.1-1.3-2 2 1.3 2.1c0.1 0.1 0.1 0.3 0 0.5-0.8 1.2-1.4 2.5-1.7 4 0 0.1-0.1 0.3-0.3 0.3l-2.4 0.5v3l2.4 0.5c0.2 0 0.3 0.2 0.3 0.4q0.4 1.8 1.4 3.4 0.1 0.2 0.1 0.2 0.1 0.2 0.2 0.3c0.1 0.1 0.1 0.4 0 0.5l-1.3 2.1 2 2 2.1-1.3q0.1-0.1 0.3-0.1 0.1 0.1 0.2 0.1 0.1 0.1 0.2 0.2 0.2 0 0.2 0.1 1.7 1 3.6 1.4c0.1 0 0.3 0.1 0.3 0.3l0.5 2.4h3l0.5-2.4c0-0.2 0.2-0.3 0.3-0.3 1.5-0.3 2.8-0.9 4-1.7 0.2-0.1 0.4-0.1 0.5 0l2.1 1.3 2-2-1.3-2.1c-0.1-0.1-0.1-0.3 0-0.5 0.8-1.2 1.4-2.5 1.7-4 0-0.1 0.1-0.3 0.3-0.3l2.4-0.5zm-18.4 2.3c0.1 0.7 0.4 1.4 0.9 1.9l12.2-12.2-1.4-1.4zm12.5-12.2l3.3 3.2 1.3-3q-0.4-0.3-0.8-0.7-0.4-0.4-0.7-0.9zm-0.2 8.4l-2.5 2.5q0 0.2 0 0.5c0 3-2.5 5.5-5.5 5.5q-0.4 0-0.8-0.1c-2.4-0.3-4.3-2.2-4.6-4.6q-0.1-0.4-0.1-0.8c0-3 2.5-5.5 5.5-5.5q0.3 0 0.5 0l2.5-2.5q-1.4-0.5-3-0.5c-4.7 0-8.5 3.8-8.5 8.5 0 1.3 0.3 2.5 0.8 3.6 0.9 1.8 2.3 3.2 4.1 4.1 1.1 0.5 2.3 0.8 3.6 0.8 4.7 0 8.5-3.8 8.5-8.5q0-1.6-0.5-3zm-7.5 7.5c2.1-0.3 3.8-1.9 4-4zm10.3-11.8l-1.4-1.4-12.2 12.2c0.6 0.5 1.2 0.8 1.9 0.9zm1.3-5.9q0.2 0.3 0.5 0.6 0.3 0.3 0.6 0.5l0.8-1.9zm-24.2 20.3q-0.2 0.2-0.2 0.4 0 0.2 0.2 0.3l0.4 0.4 1.1-1.7-0.1-0.1q-0.2-0.1-0.4-0.1-0.2 0-0.3 0.1l-0.7 0.7zm3.2 5.3l-3.6-3.5-1 1.1c-0.3 0.2-0.5 0.6-0.5 1 0 0.4 0.2 0.8 0.5 1.1l1.4 1.4c0.3 0.3 0.6 0.4 1 0.4 0.4 0 0.8-0.1 1.1-0.4zm2.5-1.8l-0.1-0.1-1.7 1.2 0.4 0.3c0.2 0.2 0.5 0.2 0.7 0l0.7-0.7c0.2-0.2 0.2-0.5 0-0.7zm6-15.2c-2.1 0.2-3.8 1.9-4 4z"/></svg>