<svg version="1.2" xmlns="http://www.w3.org/2000/svg" viewBox="0 0 30 30" width="30" height="30"><style>.a{fill:#0067f6}</style><filter id="f0"><feFlood flood-color="#ff5821" flood-opacity="1" /><feBlend mode="normal" in2="SourceGraphic"/><feComposite in2="SourceAlpha" operator="in" /></filter><g filter="url(#f0)"><path fill-rule="evenodd" class="a" d="m24.9 9.1c0.3 2.7-0.3 4.5-1.5 6.8q-0.6 1-1.3 1.9-0.5 0.6-0.9 1.2c-0.7 1-1.1 2.1-1.2 3.3 0.7 0.4 1.1 1.2 1 2-0.1 0.8-0.7 1.4-1.5 1.6v2.1c0 1.1-0.9 2-2 2h-5q-0.5 0-1-0.3 0 0-0.1 0c-0.5-0.4-0.9-1-0.9-1.7v-2.1c-0.8-0.2-1.4-0.8-1.5-1.6-0.1-0.8 0.3-1.6 1-2-0.1-1.2-0.5-2.3-1.2-3.3q-0.4-0.6-0.9-1.2-0.7-0.9-1.3-1.9c-1.2-2.3-1.8-4.1-1.6-6.8 0.5-5.1 4.8-9.1 10-9.1 5.2 0 9.5 4 9.9 9.1zm-8.6 16.9h-4.8v2q0 0.4 0.3 0.7zm2.2 0h-0.3l-5.1 3h4.4c0.5 0 1-0.5 1-1zm1.5-2c0-0.6-0.5-1-1-1h-8c-0.6 0-1 0.4-1 1 0 0.5 0.4 1 1 1h8c0.5 0 1-0.5 1-1zm3.9-14.9c-0.4-4.6-4.3-8.1-9-8.1-4.6 0-8.5 3.5-8.9 8.1-0.2 2.5 0.3 4.1 1.5 6.3q0.5 0.9 1.2 1.7 0.5 0.7 0.9 1.4c0.7 1 1.1 2.2 1.3 3.5h2.1v-8h-1.5c-1.2 0-2-0.9-2-2 0-1.1 0.8-2 2-2h0.5c1.1 0 2 0.9 2 2v1h2v-1c0-1.1 0.8-2 2-2h0.5c1.1 0 2 0.9 2 2 0 1.1-0.9 2-2 2h-1.5v8h2c0.2-1.3 0.6-2.5 1.3-3.5q0.4-0.7 0.9-1.4 0.7-0.8 1.2-1.7c1.2-2.2 1.7-3.8 1.5-6.3zm-9.9 4.9v8h2v-8zm-1-2c0-0.6-0.5-1-1-1h-0.5c-0.6 0-1 0.4-1 1 0 0.5 0.4 1 1 1h1.5zm5.5 1c0.5 0 1-0.5 1-1 0-0.6-0.5-1-1-1h-0.5c-0.6 0-1 0.4-1 1v1z"/><path class="a" d="m15 2c-4.1 0.1-7.5 3.2-8 7.3 0 0.2 0.2 0.5 0.5 0.5 0.3 0 0.5-0.2 0.5-0.5 0.4-3.5 3.4-6.2 7-6.3 0.3 0 0.5-0.2 0.5-0.5 0-0.3-0.2-0.5-0.5-0.5zm-15 8c0 0.3 0.2 0.5 0.5 0.5h2.5c0.3 0 0.5-0.2 0.5-0.5 0-0.3-0.2-0.5-0.5-0.5h-2.5c-0.3 0-0.5 0.2-0.5 0.5zm4.4 5.6l-2.2 1.2c-0.2 0.1-0.3 0.3-0.3 0.5 0 0.1 0.1 0.3 0.3 0.4 0.1 0.1 0.3 0.1 0.5 0l2.2-1.3c0.2-0.1 0.3-0.4 0.1-0.6-0.1-0.3-0.4-0.4-0.6-0.2zm20.6 0.2c-0.2 0.2-0.1 0.5 0.1 0.6l2.2 1.3c0.2 0.1 0.6 0 0.7-0.2 0.1-0.2 0-0.5-0.2-0.7l-2.2-1.2c-0.2-0.2-0.5-0.1-0.6 0.2zm4.5-6.3h-2.5c-0.3 0-0.5 0.2-0.5 0.5 0 0.3 0.2 0.5 0.5 0.5h2.5c0.3 0 0.5-0.2 0.5-0.5 0-0.3-0.2-0.5-0.5-0.5zm-1.5-7c-0.1-0.2-0.5-0.3-0.7-0.2l-2.2 1.3c-0.1 0.1-0.2 0.2-0.2 0.4 0 0.2 0.1 0.3 0.2 0.4 0.2 0.1 0.4 0.1 0.5 0l2.2-1.2c0.2-0.2 0.3-0.5 0.2-0.7zm-23.1 1.1l-2.2-1.3c-0.2-0.1-0.6 0-0.7 0.2-0.1 0.2 0 0.5 0.2 0.7l2.2 1.2c0.1 0.1 0.3 0.1 0.5 0 0.1-0.1 0.2-0.2 0.2-0.4 0-0.2-0.1-0.3-0.2-0.4z"/></g></svg>