<svg version="1.2" xmlns="http://www.w3.org/2000/svg" viewBox="0 0 20 32" width="20" height="32"><style>.a{fill:#0067f6}</style><filter id="f0"><feFlood flood-color="#ff5821" flood-opacity="1" /><feBlend mode="normal" in2="SourceGraphic"/><feComposite in2="SourceAlpha" operator="in" /></filter><g filter="url(#f0)"><path fill-rule="evenodd" class="a" d="m0 28.4v-25.2c0-1.8 1.4-3.2 3.2-3.2h13.6c1.7 0 3.2 1.4 3.2 3.2v25.2c0 1.7-1.5 3.1-3.2 3.1h-13.6c-1.8 0-3.2-1.4-3.2-3.1zm18.9 0v-1.1h-17.8v1.1c0 1.1 0.9 2.1 2.1 2.1h13.6c1.2 0 2.1-1 2.1-2.1zm-17.8-2.1h17.8v-21h-17.8zm0-23.2v1.1h17.8v-1.1c0-1.1-0.9-2.1-2.1-2.1h-6.3v1.1c0 0.3-0.2 0.5-0.5 0.5-0.3 0-0.5-0.2-0.5-0.5v-1.1h-6.3c-1.2 0-2.1 1-2.1 2.1z"/><path fill-rule="evenodd" class="a" d="m12.1 28.9c0 0.3-0.3 0.5-0.5 0.5h-3.2c-0.3 0-0.5-0.2-0.5-0.5 0-0.3 0.2-0.5 0.5-0.5h3.2c0.2 0 0.5 0.2 0.5 0.5zm-8.6-13.8c-0.1 0.1-0.3 0.2-0.5 0.1-0.2 0-0.3-0.2-0.4-0.3 0-0.2 0-0.4 0.2-0.6l7.3-7.8c0.1-0.2 0.3-0.2 0.5-0.2 0.2 0 0.4 0.2 0.4 0.4 0.1 0.2 0 0.3-0.1 0.5zm10.7-8.8c0.2 0.1 0.4 0.2 0.4 0.4 0.1 0.2 0 0.4-0.1 0.5l-10.5 11.6c-0.2 0.2-0.5 0.2-0.7 0-0.2-0.2-0.3-0.5-0.1-0.8l10.5-11.5c0.2-0.1 0.4-0.2 0.5-0.2zm-1 5.3c0.2 0 0.3 0.2 0.4 0.3 0 0.2 0 0.4-0.1 0.6l-4.2 4.7c-0.2 0.2-0.6 0.2-0.8 0-0.2-0.2-0.2-0.5 0-0.7l4.2-4.7c0.1-0.2 0.3-0.3 0.5-0.2z"/></g></svg>