<svg version="1.2" xmlns="http://www.w3.org/2000/svg" viewBox="0 0 10 10" width="10" height="10"><style>.a{fill:#ff5821}</style><path fill-rule="evenodd" class="a" d="m10 7.9c0 1.2-0.9 2.1-2.1 2.1-1.1 0-2-0.9-2-2.1q0-0.3 0.1-0.6l-2.3-1.1c-0.3 0.5-1 0.9-1.6 0.9-1.2 0-2.1-1-2.1-2.1 0-1.1 0.9-2.1 2.1-2.1 0.6 0 1.3 0.4 1.6 0.9l2.3-1.1q-0.1-0.3-0.1-0.6c0-1.2 0.9-2.1 2-2.1 1.2 0 2.1 0.9 2.1 2.1 0 1.1-0.9 2-2.1 2-0.6 0-1.3-0.3-1.6-0.9l-2.3 1.2q0.1 0.3 0.1 0.6 0 0.3-0.1 0.6l2.3 1.2c0.3-0.6 1-0.9 1.6-0.9 1.2 0 2.1 0.9 2.1 2zm-3.5-5.8c0 0.8 0.6 1.4 1.4 1.4 0.9 0 1.5-0.6 1.5-1.4 0-0.9-0.6-1.5-1.5-1.5-0.8 0-1.4 0.6-1.4 1.5zm-3 2.9c0-0.8-0.6-1.5-1.4-1.5-0.9 0-1.5 0.7-1.5 1.5 0 0.8 0.6 1.5 1.5 1.5 0.8 0 1.4-0.7 1.4-1.5zm5.9 2.9c0-0.8-0.6-1.4-1.5-1.4-0.8 0-1.4 0.6-1.4 1.4 0 0.9 0.6 1.5 1.4 1.5 0.9 0 1.5-0.6 1.5-1.5z"/></svg>